<svg width="75" height="72" viewBox="0 0 75 72" fill="none" xmlns="http://www.w3.org/2000/svg">
<path d="M28.8081 54.0594H46.1882H28.8081ZM37.5 3.4931V7.10498V3.4931ZM61.1694 13.014L58.5399 15.5676L61.1694 13.014ZM70.9734 36H67.2541H70.9734ZM7.74596 36H4.0267H7.74596ZM16.4602 15.5676L13.8307 13.014L16.4602 15.5676ZM24.3487 48.7716C21.7485 46.2458 19.9778 43.0279 19.2607 39.5248C18.5436 36.0218 18.9121 32.3909 20.3198 29.0912C21.7274 25.7916 24.111 22.9714 27.169 20.9872C30.227 19.003 33.8222 17.944 37.5 17.944C41.1778 17.944 44.773 19.003 47.8311 20.9872C50.8891 22.9714 53.2726 25.7916 54.6803 29.0912C56.0879 32.3909 56.4565 36.0218 55.7394 39.5248C55.0222 43.0279 53.2516 46.2458 50.6513 48.7716L48.6132 50.7473C47.448 51.8791 46.5237 53.2227 45.8932 54.7013C45.2627 56.18 44.9383 57.7648 44.9385 59.3652V61.2831C44.9385 63.199 44.1548 65.0364 42.7599 66.3911C41.3649 67.7458 39.4728 68.5069 37.5 68.5069C35.5272 68.5069 33.6352 67.7458 32.2402 66.3911C30.8452 65.0364 30.0615 63.199 30.0615 61.2831V59.3652C30.0615 56.1326 28.7375 53.03 26.3869 50.7473L24.3487 48.7716Z" stroke="#EC7979" stroke-width="6.83333" stroke-linecap="round" stroke-linejoin="round"/>
</svg>
